<?xml version="1.0" encoding="UTF-8"?>
<svg id="Capa_1" xmlns="http://www.w3.org/2000/svg" version="1.1" viewBox="0 0 180 180">
  <!-- Generator: Adobe Illustrator 30.5.1, SVG Export Plug-In . SVG Version: 2.1.4 Build 3)  -->
  <defs>
    <style>
      .st0 {
        fill: #060606;
      }

      .st0, .st1, .st2 {
        stroke: #c1c1c1;
        stroke-miterlimit: 10;
        stroke-width: .75px;
      }

      .st1 {
        fill: none;
      }

      .st2 {
        fill: #c1c1c1;
      }
    </style>
  </defs>
  <path class="st1" d="M77.78,82.29h24.23v25.5c0,6.69-5.43,12.12-12.12,12.12h0c-6.69,0-12.12-5.43-12.12-12.12v-25.5h0Z"/>
  <path class="st2" d="M89.9,64.87h0c3.62,0,6.56,2.94,6.56,6.56v6.56h-13.13v-6.56c0-3.62,2.94-6.56,6.56-6.56Z"/>
  <g>
    <line class="st0" x1="77.78" y1="86.58" x2="55.17" y2="78"/>
    <line class="st0" x1="55.17" y1="117.29" x2="77.78" y2="108.71"/>
    <line class="st0" x1="77.78" y1="98.07" x2="58.58" y2="98.07"/>
  </g>
  <g>
    <line class="st0" x1="102.22" y1="86.58" x2="124.83" y2="78"/>
    <line class="st0" x1="124.83" y1="117.29" x2="102.22" y2="108.71"/>
    <line class="st0" x1="102.22" y1="98.07" x2="121.42" y2="98.07"/>
  </g>
  <line class="st0" x1="86.38" y1="65.9" x2="81.53" y2="60.1"/>
  <line class="st0" x1="93.01" y1="65.9" x2="97.86" y2="60.1"/>
</svg>