<?xml version="1.0" encoding="UTF-8"?>
<svg id="Capa_1" xmlns="http://www.w3.org/2000/svg" version="1.1" viewBox="0 0 180 180">
  <!-- Generator: Adobe Illustrator 30.5.1, SVG Export Plug-In . SVG Version: 2.1.4 Build 3)  -->
  <defs>
    <style>
      .st0 {
        fill: #c1c1c1;
        stroke: #c1c1c1;
        stroke-miterlimit: 10;
        stroke-width: .31px;
      }
    </style>
  </defs>
  <path class="st0" d="M122.29,65.78v35.59s-45.22,0-45.22,0v-35.59s45.22,0,45.22,0ZM120.56,67.5h-41.99s0,32.26,0,32.26h41.99s0-32.26,0-32.26Z"/>
  <path class="st0" d="M93.22,106.19v6.4s7.94.02,7.94.02l.03-6.39,1.71.02-.02,7.99h-45.16s0-35.46,0-35.46h14.39s-.04,1.59-.04,1.59l-3.17.08v32.16s22.58,0,22.58,0v-6.38s1.75-.03,1.75-.03ZM67.38,80.38h-8.18v9.57h8.18v-9.57ZM67.38,91.57h-8.18v9.68h8.18v-9.68ZM67.38,102.91h-8.18v9.7h8.18v-9.7Z"/>
  <path class="st0" d="M91.29,80.83l4.73,3.05,6.79-9.79,15.36,20.8h-36.19s9.31-14.06,9.31-14.06Z"/>
  <path class="st0" d="M90.75,75.48c0,2.23-1.81,4.04-4.04,4.04s-4.04-1.81-4.04-4.04,1.81-4.04,4.04-4.04,4.04,1.81,4.04,4.04ZM89.1,75.48c0-1.31-1.06-2.38-2.38-2.38s-2.38,1.06-2.38,2.38,1.06,2.38,2.38,2.38,2.38-1.06,2.38-2.38Z"/>
</svg>