<?xml version="1.0" encoding="UTF-8"?>
<svg id="Capa_1" xmlns="http://www.w3.org/2000/svg" version="1.1" viewBox="0 0 180 180">
  <!-- Generator: Adobe Illustrator 30.5.1, SVG Export Plug-In . SVG Version: 2.1.4 Build 3)  -->
  <defs>
    <style>
      .st0 {
        fill: #c1c1c1;
        stroke: #c1c1c1;
        stroke-miterlimit: 10;
        stroke-width: .23px;
      }
    </style>
  </defs>
  <path class="st0" d="M98.26,117.13c-7.14.4-13.65-1.52-18.85-6.24l-12.93-12.79-1.43-1.4,7.12-7.16c.52.21,1.08.67,1.45,1.16,1.83,1.85,3.4,3.56,5.67,5.48l.03-29.99,8.35-.03c-.03-1.12,0-2.2.19-3.34l9.97.02.1,3.32,8.5.03-.25,3.22c.07,1.24.17,2.48.37,3.55l8.41.02-.16,27.41c-.37,8.95-7.64,16.23-16.53,16.73ZM113.12,100.47l.16-25.73h-6.73s-.02,15-.02,15c-.58.24-1.22.26-1.64.1v-21.85c-2.43-.08-4.58-.08-7.01,0v20.18s.14,1.76.14,1.76h-1.71s0-25.31,0-25.31h-6.8s0,25.24,0,25.24c-.75.11-1.27.1-1.84-.08v-21.87s-6.77.08-6.77.08v30.16c-.17.42-1,.83-1.43.79l-7.12-7.08-4.71,4.72,12.96,12.95c4.32,3.78,9.51,5.67,15.26,5.95,8.75.42,16.86-5.85,17.28-15.02Z"/>
</svg>