<?xml version="1.0" encoding="UTF-8"?>
<svg id="Capa_1" xmlns="http://www.w3.org/2000/svg" version="1.1" viewBox="0 0 50 50">
  <!-- Generator: Adobe Illustrator 30.5.1, SVG Export Plug-In . SVG Version: 2.1.4 Build 3)  -->
  <defs>
    <style>
      .st0 {
        fill: none;
        stroke: #8a8b87;
        stroke-miterlimit: 10;
        stroke-width: .75px;
      }
    </style>
  </defs>
  <path class="st0" d="M35.08,24.63l-7.09-4.08c-.13-.08-.22-.22-.22-.37v-5.01c0-1.47-1.16-2.72-2.63-2.76s-2.78,1.19-2.78,2.7v4.98c0,.15-.08.3-.22.37l-7.23,4.16c-.3.17-.49.5-.49.84v2.47c0,.3.28.52.57.44l7.09-1.86c.13-.03.26.07.26.2v6c0,.2-.09.39-.25.51l-2.21,1.76c-.1.08-.16.2-.16.32v1.78c0,.28.27.48.53.39l4.44-1.36c.23-.07.47-.07.7,0l4.34,1.41c.27.09.54-.11.54-.39v-2.16c0-.14-.07-.26-.18-.34l-2.05-1.4c-.18-.12-.29-.32-.29-.54v-5.97c0-.14.13-.24.26-.2l6.95,1.82c.29.08.57-.14.57-.44v-2.47c0-.35-.19-.67-.49-.84Z"/>
</svg>