<?xml version="1.0" encoding="UTF-8"?>
<svg id="Capa_1" xmlns="http://www.w3.org/2000/svg" version="1.1" viewBox="0 0 50 50">
  <!-- Generator: Adobe Illustrator 30.5.1, SVG Export Plug-In . SVG Version: 2.1.4 Build 3)  -->
  <defs>
    <style>
      .st0 {
        fill: #8a8b87;
      }
    </style>
  </defs>
  <path class="st0" d="M9.63,22.11c.08-6.18,4.6-11.41,10.72-12.3,6.4-.94,12.45,3.13,13.89,9.47.9,3.94.1,7.59-2.49,10.76-.36.44-.36.68.05,1.09,2.71,2.67,5.38,5.37,8.07,8.06.28.28.75.59.35,1-.4.4-.72-.05-1-.33-2.69-2.69-5.39-5.37-8.06-8.07-.4-.4-.64-.42-1.1-.05-7.15,5.84-18.05,2.22-20.04-6.9-.19-.89-.27-1.81-.4-2.71ZM33.72,22.11c.08-6.01-4.8-11.54-11.54-11.6-6.37-.06-11.62,5.24-11.61,11.61,0,6.36,5.22,11.59,11.56,11.6,6.41,0,11.59-5.19,11.59-11.61Z"/>
</svg>