<?xml version="1.0" encoding="UTF-8"?>
<svg id="Capa_1" xmlns="http://www.w3.org/2000/svg" version="1.1" viewBox="0 0 50 50">
  <!-- Generator: Adobe Illustrator 30.5.1, SVG Export Plug-In . SVG Version: 2.1.4 Build 3)  -->
  <defs>
    <style>
      .st0 {
        fill: #8a8b87;
      }
    </style>
  </defs>
  <path class="st0" d="M15.69,16.23c.76.23,1.66.47,2.53.77.44.15.76.09,1.13-.18.46-.34.98-.61,1.49-.86.36-.17.51-.4.58-.8.11-.69.3-1.38.47-2.06.22-.89.77-1.39,1.68-1.42.96-.03,1.93-.04,2.9,0,.9.04,1.44.52,1.65,1.39.18.74.32,1.49.52,2.22.06.22.23.46.42.58.59.39,1.19.75,1.82,1.07.22.11.53.13.77.07.72-.19,1.41-.45,2.12-.67.83-.27,1.57-.01,2.02.73.51.84,1,1.69,1.48,2.55.45.81.33,1.51-.36,2.16-.57.53-1.17,1.03-1.72,1.58-.15.15-.23.44-.24.67-.03.66-.03,1.33,0,2,.01.25.11.54.27.71.53.55,1.11,1.04,1.66,1.56.72.68.83,1.27.36,2.14-.46.85-.94,1.69-1.45,2.5-.48.77-1.13,1-2.01.75-.76-.22-1.51-.5-2.28-.72-.18-.05-.44,0-.61.09-.6.32-1.2.66-1.77,1.05-.22.15-.43.4-.5.64-.22.75-.35,1.52-.54,2.27-.22.87-.74,1.28-1.64,1.3-.97.01-1.93.01-2.9,0-.9-.01-1.43-.43-1.64-1.29-.19-.76-.32-1.53-.54-2.27-.07-.25-.28-.5-.5-.65-.55-.37-1.13-.71-1.72-1.01-.2-.1-.49-.16-.7-.1-.79.21-1.55.49-2.34.72-.73.21-1.39,0-1.8-.64-.58-.91-1.12-1.84-1.62-2.79-.39-.73-.25-1.33.35-1.92.54-.53,1.09-1.06,1.67-1.55.33-.28.4-.56.36-.97-.05-.59.02-1.18-.02-1.77-.02-.26-.1-.59-.27-.77-.51-.53-1.1-1-1.64-1.51-.74-.68-.86-1.39-.37-2.25.46-.83.94-1.64,1.42-2.46.3-.52.76-.8,1.49-.88ZM18.92,32.09c.15.07.3.13.45.21.77.44,1.54.88,2.29,1.35.16.1.31.31.36.5.22.86.41,1.73.59,2.6.12.59.48.85,1.05.85.89,0,1.78,0,2.67,0,.58,0,.93-.27,1.05-.86.17-.85.36-1.7.59-2.54.06-.23.27-.46.48-.59.68-.44,1.38-.86,2.11-1.23.27-.14.63-.22.92-.15.85.2,1.68.46,2.51.73.55.18.93,0,1.21-.48.45-.79.91-1.58,1.37-2.35.28-.47.23-.86-.19-1.23-.64-.57-1.25-1.16-1.88-1.73-.28-.25-.39-.52-.36-.92.06-.79.06-1.59,0-2.38-.03-.38.05-.63.32-.87.64-.57,1.25-1.16,1.88-1.73.41-.37.54-.77.23-1.28-.49-.81-.95-1.64-1.42-2.46-.27-.48-.67-.59-1.19-.43-.79.25-1.6.48-2.39.74-.4.13-.72.08-1.09-.17-.66-.44-1.38-.79-2.05-1.22-.21-.13-.41-.37-.48-.6-.24-.86-.43-1.73-.62-2.59-.13-.56-.48-.81-1.03-.82-.89,0-1.78,0-2.67,0-.52,0-.87.26-1,.79-.2.88-.39,1.77-.63,2.65-.06.21-.25.44-.45.56-.69.43-1.42.8-2.1,1.25-.35.23-.66.28-1.04.16-.79-.25-1.6-.48-2.39-.74-.53-.17-.94-.05-1.23.45-.46.81-.93,1.6-1.38,2.41-.32.58-.27.85.23,1.31.61.56,1.23,1.12,1.86,1.68.27.24.37.48.34.87-.07.79-.06,1.59,0,2.38.03.38-.05.64-.32.88-.63.57-1.25,1.16-1.88,1.74-.49.45-.54.75-.21,1.32.29.51.6,1.02.89,1.54q.88,1.56,2.6,1.02c.65-.2,1.31-.39,1.99-.59Z"/>
  <path class="st0" d="M29.1,25.01c0,2.29-1.79,4.12-4.06,4.14-2.31.01-4.14-1.8-4.14-4.11,0-2.28,1.81-4.13,4.06-4.13,2.32,0,4.14,1.79,4.14,4.11ZM25,28.39c1.84,0,3.37-1.52,3.38-3.36,0-1.83-1.53-3.37-3.36-3.38-1.87,0-3.42,1.53-3.41,3.38.01,1.84,1.54,3.35,3.39,3.35Z"/>
</svg>