<?xml version="1.0" encoding="UTF-8"?>
<svg id="Capa_1" xmlns="http://www.w3.org/2000/svg" version="1.1" viewBox="0 0 50 50">
  <!-- Generator: Adobe Illustrator 30.5.1, SVG Export Plug-In . SVG Version: 2.1.4 Build 3)  -->
  <defs>
    <style>
      .st0 {
        fill: none;
        stroke: #8a8b87;
        stroke-linecap: round;
        stroke-miterlimit: 10;
      }

      .st1 {
        fill: #8a8b87;
      }
    </style>
  </defs>
  <path class="st1" d="M21.7,8.27c5.19,0,10.38-.01,15.57.01.65,0,1.36.07,1.94.33,1.66.73,2.09,2.78.93,4.23-2.09,2.65-4.21,5.28-6.32,7.92-2.34,2.93-4.7,5.85-7.01,8.79-.25.32-.4.81-.41,1.22-.03,2.93-.03,5.86-.01,8.78,0,.8-.17,1.49-.91,1.9-.78.43-1.51.32-2.23-.22-1.67-1.23-3.36-2.44-5.05-3.64-.85-.61-1.24-1.41-1.22-2.45.03-1.38-.03-2.77.02-4.15.02-.69-.21-1.2-.63-1.73-4.32-5.37-8.6-10.76-12.92-16.13-.83-1.03-1.14-2.09-.56-3.31.59-1.22,1.7-1.55,2.92-1.56,2.58-.02,5.16,0,7.75,0,2.71,0,5.43,0,8.14,0ZM21.73,9.4c-5.24,0-10.48,0-15.73,0-.29,0-.59,0-.87.05-1.37.26-1.9,1.63-1.04,2.73,1.51,1.92,3.04,3.83,4.57,5.74,2.95,3.7,5.92,7.39,8.85,11.11.31.4.49,1,.51,1.51.07,1.43.05,2.87.01,4.31-.02.88.29,1.51,1.01,2.02,1.54,1.08,3.04,2.24,4.59,3.32.33.23.94.48,1.18.33.3-.19.5-.77.5-1.19.04-2.93,0-5.85.04-8.78,0-.51.2-1.11.51-1.51,1.65-2.15,3.37-4.25,5.06-6.37,2.79-3.49,5.57-6.99,8.35-10.49.87-1.1.35-2.46-1.03-2.73-.28-.05-.58-.05-.87-.05-5.22,0-10.43,0-15.65,0Z"/>
  <polyline class="st0" points="47.41 30.8 40.16 40.36 32.46 31.23"/>
</svg>