<?xml version="1.0" encoding="UTF-8"?>
<svg id="Capa_1" xmlns="http://www.w3.org/2000/svg" version="1.1" viewBox="0 0 50 50">
  <!-- Generator: Adobe Illustrator 30.5.1, SVG Export Plug-In . SVG Version: 2.1.4 Build 3)  -->
  <defs>
    <style>
      .st0 {
        fill: #8a8b87;
      }
    </style>
  </defs>
  <path class="st0" d="M8.41,24.49c0-1.04-.03-2.08.02-3.12,0-.04.01-.08.03-.12.14-.36.67-.36.79,0,0,.03.02.06.02.09.03,2.1.03,4.2,0,6.3,0,.23-.24.61-.42.64-.42.08-.43-.32-.43-.62,0-1.06,0-2.12,0-3.18Z"/>
  <g>
    <path class="st0" d="M8.41,16.82c-.11-2.16.69-3.93,2.59-5.13,1.41-.88,3.01-.85,4.59-.77.06,0,.12.05.18.11.17.17.16.46-.02.61-.08.07-.16.12-.24.13-.84.08-1.69.02-2.52.13-2.06.28-3.59,2-3.69,4.07-.03.65.03,1.3-.04,1.95,0,.02,0,.04-.01.06-.1.4-.68.38-.81-.02,0-.02-.01-.04-.01-.06-.07-.33-.02-.69-.02-1.08Z"/>
    <path class="st0" d="M22.01,11.8c-1.04,0-2.08.03-3.12-.02-.04,0-.08-.01-.12-.03-.35-.13-.38-.64-.04-.8.05-.02.1-.04.14-.04,2.1-.04,4.2-.04,6.3,0,.05,0,.09.02.14.04.33.17.29.67-.06.8-.04.02-.09.03-.13.03-1.04.04-2.08.02-3.12.02Z"/>
    <g>
      <path class="st0" d="M35.61,17.95c0,.65.04,1.3-.02,1.95,0,.03,0,.06-.02.09-.12.38-.69.37-.77-.02,0-.02,0-.04,0-.06-.04-1.13,0-2.25-.02-3.38-.03-2.23-1.16-3.92-3.15-4.49-.77-.22-1.62-.16-2.44-.23-.13-.01-.26,0-.39,0-.34-.04-.85.09-.8-.46.02-.17.5-.42.78-.43,1.43-.06,2.87-.03,4.16.74,1.72,1.02,2.58,2.57,2.67,4.55.03.58,0,1.17,0,1.75Z"/>
      <path class="st0" d="M9.28,32.37c-.1,1.67.5,3.19,2.09,4.22.84.55,1.8.71,2.79.68.5-.02,1-.02,1.49.03.15.02.39.26.39.39,0,.15-.23.42-.36.42-1.73.06-3.47.16-4.98-.96-1.48-1.09-2.24-2.54-2.27-4.37-.01-.58-.03-1.17.02-1.75,0-.03.01-.06.03-.09.14-.31.61-.32.77-.01.02.03.03.06.03.1.07.38.02.78.02,1.34Z"/>
      <path class="st0" d="M22.08,37.26c1.04,0,2.08-.02,3.11.02.02,0,.04,0,.05,0,.37.07.43.59.11.79-.05.03-.11.05-.16.05-2.12.04-4.24.03-6.35,0-.04,0-.07,0-.11-.02-.34-.12-.36-.6-.05-.77.05-.03.1-.05.16-.05,1.08-.05,2.16-.02,3.24-.02Z"/>
      <path class="st0" d="M32.86,21.67c-4.87,0-8.66,3.88-8.67,8.87,0,4.53,3.8,8.67,8.89,8.57,4.84-.09,8.64-4.11,8.53-8.73,0-4.89-3.84-8.71-8.75-8.71ZM37.32,30.88c-.06.03-.12.05-.19.06-.91.05-1.82.02-2.73.02q-.98,0-.98,1.01c0,.89.03,1.78-.02,2.66,0,.02,0,.05-.01.07-.09.4-.69.41-.78,0,0-.02,0-.04,0-.06-.05-.91-.02-1.82-.02-2.73q0-.97-.94-.97c-.41,0-.82,0-1.23,0-.43,0-.87.01-1.3,0-.34-.01-.85.14-.86-.41,0-.6.53-.44.89-.44.95-.02,1.9-.03,2.86,0,.46.02.6-.15.59-.6-.03-.97-.02-1.95,0-2.92,0-.31-.14-.78.4-.8.55-.01.42.45.42.77.01.84,0,1.69,0,2.53q0,1,.97,1c.91,0,1.82-.03,2.73.02.07,0,.13.03.19.06.28.15.29.56,0,.71Z"/>
    </g>
  </g>
</svg>