<?xml version="1.0" encoding="UTF-8"?>
<svg id="Capa_1" xmlns="http://www.w3.org/2000/svg" version="1.1" viewBox="0 0 50 50">
  <!-- Generator: Adobe Illustrator 30.5.1, SVG Export Plug-In . SVG Version: 2.1.4 Build 3)  -->
  <defs>
    <style>
      .st0 {
        fill: #8a8b87;
      }
    </style>
  </defs>
  <path class="st0" d="M33.45,15.66c-.75-.71-1.43-1.6-2.18-2.3-.72-.67-1.46-1.31-2.15-2.01-.03-.04-.06-.08-.09-.12-.17-.33.17-.71.51-.55.03.01.06.03.08.05,1.81,1.62,3.6,3.27,5.4,4.91.36.33.38.62,0,.96-1.81,1.65-3.61,3.33-5.43,4.97-.02.02-.05.03-.07.05-.34.15-.68-.23-.52-.57.02-.03.04-.06.06-.09,1.32-1.27,2.67-2.51,4.03-3.76.15-.14.39-.49.47-.66-.03-.12-.04-.08,0,0-.23-.02-.47,0-.7,0-4.81,0-9.61-.03-14.42,0-4.42.03-8.24,3.39-8.89,7.73-.09.57-.07,1.15-.17,1.71,0,.03-.01.05-.02.08-.14.35-.66.36-.78,0,0-.03-.02-.06-.02-.09-.07-4.19,2.29-8.27,6.73-9.71,1.28-.41,2.67-.58,4.02-.61,4.48-.07,8.97-.03,13.45-.03.23,0,.46,0,.7,0,.03-.09-.03.09,0,0Z"/>
  <path class="st0" d="M32.82,22.17c-4.8,0-8.54,3.83-8.54,8.74,0,4.46,3.74,8.55,8.76,8.45,4.77-.09,8.52-4.05,8.4-8.61,0-4.82-3.78-8.58-8.62-8.58ZM37.22,31.24c-.06.03-.12.05-.19.06-.89.05-1.79.02-2.69.02q-.97,0-.97,1c0,.87.03,1.75-.02,2.62,0,.02,0,.05-.01.07-.09.39-.68.4-.76,0,0-.02,0-.04,0-.06-.05-.89-.02-1.79-.02-2.69q0-.96-.92-.96c-.41,0-.81,0-1.22,0-.43,0-.85.01-1.28,0-.34-.01-.84.14-.84-.41,0-.59.52-.43.87-.44.94-.02,1.88-.03,2.81,0,.46.01.59-.15.58-.59-.03-.96-.02-1.92,0-2.88,0-.31-.14-.77.39-.79.54-.01.41.44.42.76.01.83,0,1.66,0,2.5q0,.99.96.99c.9,0,1.79-.03,2.69.02.06,0,.13.03.19.06.28.14.28.55,0,.7Z"/>
  <path class="st0" d="M10.4,31.33c.75.71,1.43,1.6,2.18,2.3.72.67,1.46,1.31,2.15,2.01.03.04.06.08.09.12.17.33-.17.71-.51.55-.03-.01-.06-.03-.08-.05-1.81-1.62-3.6-3.27-5.4-4.91-.36-.33-.38-.62,0-.96,1.81-1.65,3.61-3.33,5.43-4.97.02-.02.05-.03.07-.05.34-.15.68.23.52.57-.02.03-.04.06-.06.09-1.32,1.27-2.67,2.51-4.03,3.76-.15.14-.39.49-.47.66.03.12.04.08,0,0,.23.02.47,0,.7,0,4.11,0,8.23.02,12.34,0l-.06.87c-4.06.05-8.12,0-12.19,0-.23,0-.46,0-.7,0-.03.09.03-.09,0,0Z"/>
</svg>