<?xml version="1.0" encoding="UTF-8"?>
<svg id="Capa_1" xmlns="http://www.w3.org/2000/svg" version="1.1" viewBox="0 0 50 50">
  <!-- Generator: Adobe Illustrator 30.5.1, SVG Export Plug-In . SVG Version: 2.1.4 Build 3)  -->
  <defs>
    <style>
      .st0 {
        fill: #8a8b87;
      }
    </style>
  </defs>
  <path class="st0" d="M32.12,36.09c-2.82,0-5.64.01-8.46-.01-.58,0-.86.13-1.03.74-.49,1.78-2.14,2.93-4.03,2.92-1.87,0-3.4-1.15-3.9-2.97-.15-.53-.37-.71-.92-.7-1.53.03-3.06.03-4.58,0-.39,0-1.05.14-1.01-.54.03-.56.61-.47,1.02-.47,1.5,0,3.01-.03,4.51,0,.55.01.81-.12.98-.7.53-1.9,1.99-2.93,3.98-2.92,1.95,0,3.45,1.11,3.97,2.96.14.49.35.66.88.66,5.71-.02,11.42-.01,17.13,0,.3,0,.61.03.89.12.13.04.27.29.26.43-.01.14-.19.34-.33.37-.34.08-.7.1-1.05.1-2.77,0-5.55,0-8.32,0ZM18.67,38.81c1.76,0,3.22-1.48,3.21-3.24,0-1.76-1.48-3.21-3.24-3.2-1.83,0-3.19,1.38-3.19,3.23,0,1.8,1.41,3.21,3.22,3.21Z"/>
  <path class="st0" d="M33.35,14.88c-2.52,0-5.03.01-7.55-.01-.58,0-.87.15-1.05.75-.54,1.85-2.1,2.97-4,2.97-1.89,0-3.4-1.11-3.95-3-.17-.57-.43-.72-.98-.72-2.21.03-4.42.01-6.63,0-.21,0-.44.03-.63-.04-.16-.07-.35-.25-.38-.41-.02-.12.15-.35.29-.41.23-.09.5-.11.76-.11,2.23,0,4.47-.02,6.7,0,.51,0,.73-.14.87-.65.51-1.87,2.08-3.03,3.94-3.01,1.96.02,3.51,1.16,4.02,3.02.14.51.38.64.88.64,5.01-.02,10.01-.01,15.02,0,.45,0,1.12-.14,1.13.5,0,.7-.7.46-1.12.46-2.44.02-4.89.01-7.33.01ZM23.99,14.43c0-1.79-1.43-3.23-3.21-3.24-1.78,0-3.23,1.43-3.23,3.22,0,1.79,1.44,3.25,3.21,3.25,1.77,0,3.23-1.46,3.23-3.23Z"/>
  <path class="st0" d="M17.71,24.56c2.87,0,5.73-.01,8.6.01.63,0,.93-.12,1.1-.82.41-1.73,2.11-2.94,3.94-2.95,1.81-.01,3.55,1.24,3.99,2.99.17.65.47.8,1.07.78,1.55-.03,3.1-.03,4.65,0,.26,0,.71.23.74.39.07.49-.38.49-.74.5-1.6,0-3.2.02-4.79,0-.54-.01-.76.17-.92.7-.63,2.1-2.22,2.98-4.04,3-2,.02-3.52-1.23-3.97-3.15-.13-.57-.47-.54-.88-.54-5.26,0-10.52,0-15.79,0-.56,0-1.13.05-1.69-.02-.29-.04-.76-.26-.78-.44-.06-.51.42-.44.76-.44,2.91,0,5.83,0,8.74,0ZM34.55,25.02c.01-1.8-1.4-3.25-3.19-3.27-1.76-.01-3.23,1.46-3.25,3.23-.01,1.77,1.43,3.24,3.21,3.26,1.76.03,3.21-1.42,3.22-3.23Z"/>
  <path class="st0" d="M34.55,25.02c-.01,1.8-1.46,3.25-3.22,3.23-1.78-.03-3.22-1.49-3.21-3.26.01-1.77,1.49-3.24,3.25-3.23,1.78.02,3.2,1.46,3.19,3.27Z"/>
</svg>