<?xml version="1.0" encoding="UTF-8"?>
<svg id="Capa_1" xmlns="http://www.w3.org/2000/svg" version="1.1" viewBox="0 0 50 50">
  <!-- Generator: Adobe Illustrator 30.5.1, SVG Export Plug-In . SVG Version: 2.1.4 Build 3)  -->
  <defs>
    <style>
      .st0 {
        fill: #8a8b87;
      }
    </style>
  </defs>
  <path class="st0" d="M28.34,14.4c.21-.16.11-.5-.16-.5,0,0,0,0,0,0-4.08,0-8.16-.02-12.24,0-3.18.02-5.54,2.57-5.39,5.74.11,2.15,1.85,4.27,3.96,4.74.64.14,1.31.22,1.96.22,5.83.02,11.67.05,17.5,0,3.23-.03,5.99,2.15,6.34,5.6.33,3.28-1.91,6.13-5.26,6.7-.44.08-.52.34-.62.69-.55,1.89-2.32,3-4.24,2.69-1.88-.3-3.22-1.92-3.19-3.83.03-1.82,1.42-3.38,3.26-3.64,1.84-.26,3.65.85,4.15,2.66.17.63.49.64.97.53,2.6-.61,4.29-2.99,4.09-5.74-.18-2.45-2.3-4.53-4.83-4.76-.36-.03-.72-.05-1.09-.05-5.85,0-11.71,0-17.56,0-2.9,0-5.19-1.67-6.03-4.37-1.25-4.01,1.68-8.01,5.89-8.02,4.06,0,8.12,0,12.18,0,.06,0,.12,0,.17,0,.25-.02.34-.35.14-.5-.54-.41-1.07-.82-1.61-1.23-.17-.13-.38-.24-.49-.41-.06-.09-.06-.21-.07-.33,0-.14.09-.25.23-.28s.25-.05.33,0c.52.33,1.01.72,1.5,1.09.7.52,1.4,1.05,2.1,1.58.52.4.53.59.02.98-1.14.86-2.29,1.72-3.43,2.58-.24.18-.56.42-.75.04-.08-.16.1-.56.28-.71.59-.49,1.21-.95,1.89-1.46ZM33.69,36.53c0-1.64-1.31-2.94-2.93-2.91-1.62.02-2.92,1.35-2.91,2.96.01,1.6,1.36,2.93,2.96,2.91,1.64-.02,2.89-1.3,2.89-2.96Z"/>
  <path class="st0" d="M22.98,35.98c-.4-.32-.79-.64-1.19-.95-.42-.33-.88-.62-1.27-.97-.06-.05-.09-.14-.11-.24-.04-.2.1-.4.3-.44.1-.02.2-.02.26.02,1.27.91,2.51,1.85,3.75,2.79.3.23.28.52-.02.75-1.21.92-2.42,1.83-3.65,2.72-.07.05-.17.06-.28.05-.22-.01-.37-.22-.31-.43.03-.12.07-.22.15-.29.56-.49,1.18-.91,1.78-1.37.15-.12.3-.32.47-.53.04-.05,0-.12-.06-.12-.26,0-.56.01-.81.02-1.22.06-2.14-.04-3.31.01-1.03.05-1.39,0-1.65.78-.76,2.32-3.46,3.26-5.54,1.98-1.44-.88-2.09-2.54-1.66-4.22.4-1.57,1.85-2.71,3.52-2.78,1.68-.07,3.18.91,3.67,2.53.21.7.55.87,1.22.85,1.34-.05,2.69-.01,4.04-.02.22,0,.45-.04.67-.05l.03-.11ZM16.39,36.53c-.01-1.62-1.34-2.93-2.95-2.92-1.61.01-2.92,1.34-2.91,2.96,0,1.62,1.33,2.93,2.94,2.92,1.6,0,2.93-1.35,2.91-2.96Z"/>
  <path class="st0" d="M32.76,13.5c-.02-2.04,1.72-3.82,3.76-3.84,2.01-.02,3.8,1.75,3.81,3.79,0,2.04-1.72,3.81-3.76,3.84-2.02.03-3.79-1.73-3.81-3.79ZM39.48,13.46c0-1.6-1.34-2.94-2.94-2.94-1.57,0-2.92,1.37-2.91,2.97,0,1.6,1.38,2.97,2.94,2.94,1.61-.03,2.92-1.36,2.92-2.97Z"/>
  <path class="st0" d="M16.39,36.53c.01,1.61-1.31,2.95-2.91,2.96-1.61,0-2.94-1.31-2.94-2.92,0-1.62,1.3-2.95,2.91-2.96,1.6-.01,2.93,1.3,2.95,2.92Z"/>
  <path class="st0" d="M39.48,13.46c0,1.61-1.3,2.94-2.92,2.97-1.56.03-2.93-1.35-2.94-2.94,0-1.6,1.34-2.97,2.91-2.97,1.6,0,2.94,1.34,2.94,2.94Z"/>
</svg>